# xmcd
#
# Track frame offsets: 
#        150
#        48365
#        93618
#        119613
#        149240
#        163127
#        182595
#        210713
#        240985
#        254718
#
# Disc length: 3659 seconds
#
# Revision: 1
# Processed by: cddbd v1.5.2PL0 Copyright (c) Steve Scherf et al.
# Submitted via: ExactAudioCopy v0.99pb4
#
DISCID=9a0e490a
DTITLE=Krisztina Laki (soprano), Florence Quivar (mezzo-soprano), Koln
DTITLE=er Rundfunk-Sinfonieorchester and Gary Bertini - Mahler Symphonie
DTITLE=s 1-10 [CD2]
DYEAR=2005
DGENRE=Classical
TTITLE0=Mahler Symphony No.2 in C minor, "Resurrection" - II. Andante 
TTITLE0=moderato. Sehr gemachlich
TTITLE1=Mahler Symphony No.2 in C minor, "Resurrection" - III. In ruhi
TTITLE1=g fliessender bewegung
TTITLE2=Mahler Symphony No.2 in C minor, "Resurrection" - IV. Urlicht.
TTITLE2=Sehr feierlich, aber schlicht
TTITLE3=Mahler Symphony No.2 in C minor, "Resurrection" - V. Im tempo 
TTITLE3=des scherzo. Wild herausfahrend
TTITLE4=Mahler Wieder sehr breit
TTITLE5=Mahler Ritardando...Maestoso. Sehr zuruckhaltend
TTITLE6=Mahler Wieder zuruckhaltend
TTITLE7=Mahler Langsam. Misterioso
TTITLE8=Mahler Etwas bewegter
TTITLE9=Mahler Mit aufschwung, aber nicht eilen
EXTD=
EXTT0=
EXTT1=
EXTT2=
EXTT3=
EXTT4=
EXTT5=
EXTT6=
EXTT7=
EXTT8=
EXTT9=
PLAYORDER=
